<?xml version="1.0" encoding="UTF-8"?>
<svg version="1.1" xmlns="http://www.w3.org/2000/svg" width="800" height="867">
<path d="M0 0 C3.52510355 3.08433411 6.91543958 6.29189329 10.28857422 9.54101562 C11.04138672 10.23066406 11.79419922 10.9203125 12.56982422 11.63085938 C38.99998562 36.57671823 55.03816138 72.99685391 60.28857422 108.54101562 C60.38283691 109.17370361 60.47709961 109.8063916 60.57421875 110.45825195 C61.54850413 117.89262455 61.53215703 125.36660896 61.53857422 132.85351562 C61.53958633 133.91740005 61.53958633 133.91740005 61.5406189 135.0027771 C61.5229422 146.73828348 60.81072425 158.05480678 58.28857422 169.54101562 C58.03914062 170.70383057 58.03914062 170.70383057 57.78466797 171.89013672 C50.66457439 204.04263339 34.64158529 231.56933823 12.28857422 255.54101562 C11.60279297 256.2809375 10.91701172 257.02085937 10.21044922 257.78320312 C-3.05320385 271.58722725 -19.243313 281.71421875 -35.94580078 290.81445312 C-38.91975419 292.40712112 -38.91975419 292.40712112 -40.71142578 295.54101562 C-41.17940161 299.75279806 -41.17708373 301.82700677 -38.83642578 305.41601562 C-36.1369516 308.11548981 -35.29383657 308.48501459 -31.46142578 308.85351562 C-23.98042631 308.230099 -20.3846705 303.17432483 -15.75830078 297.82617188 C-12.67182276 294.38039012 -9.28749195 291.46581146 -5.71142578 288.54101562 C-4.72658203 287.71859375 -3.74173828 286.89617187 -2.72705078 286.04882812 C34.09729898 255.82686511 80.0839307 242.87415631 127.35888672 247.00195312 C172.17354111 251.7727647 214.98045207 274.53859034 243.51098633 309.58544922 C249.31070622 316.89642771 254.55277303 324.50187189 259.28857422 332.54101562 C259.69462891 333.22728027 260.10068359 333.91354492 260.51904297 334.62060547 C271.29128402 353.13643056 277.82864496 373.43520836 281.28857422 394.54101562 C281.46364502 395.60666748 281.63871582 396.67231934 281.8190918 397.77026367 C282.32285312 401.81633419 282.46729307 405.79897536 282.49169922 409.86914062 C282.49880417 410.65136993 282.50590912 411.43359924 282.51322937 412.23953247 C282.74306416 444.98480322 282.74306416 444.98480322 279.28857422 458.54101562 C279.06282715 459.45383301 278.83708008 460.36665039 278.60449219 461.30712891 C266.89378236 507.50818206 238.6825992 546.7243269 197.61499023 571.32714844 C170.34291874 587.10150231 140.33490252 595.2419301 108.85107422 594.91601562 C107.63991943 594.90903656 107.63991943 594.90903656 106.40429688 594.9019165 C94.48647686 594.82155776 82.90366073 594.43698141 71.28857422 591.54101562 C70.46615234 591.34233887 69.64373047 591.14366211 68.79638672 590.93896484 C36.67791522 582.98678394 9.06164316 567.44007468 -14.71142578 544.54101562 C-15.46423828 543.85136719 -16.21705078 543.16171875 -16.99267578 542.45117188 C-46.79986348 514.31793856 -64.17498738 471.01128501 -65.91064453 430.41992188 C-65.94198486 429.74791748 -65.9733252 429.07591309 -66.00561523 428.38354492 C-66.08140262 426.53831675 -66.12792402 424.69195227 -66.17236328 422.84570312 C-66.82009897 418.87480176 -68.23132887 416.67449614 -70.71142578 413.54101562 C-73.78891628 411.62798099 -75.56952286 411.53848164 -79.21142578 411.60351562 C-83.43915921 412.73594422 -85.00689533 414.14103448 -87.71142578 417.54101562 C-92.5568303 427.34561107 -89.47908197 440.72850137 -88.14892578 451.16601562 C-88.06250824 451.85775879 -87.9760907 452.54950195 -87.88705444 453.26220703 C-72.90310055 573.35730466 -72.90310055 573.35730466 -37.71142578 688.54101562 C-45.13196983 687.81447171 -52.45059217 686.64319123 -59.80761719 685.44223022 C-100.73458282 678.81357637 -139.3489797 680.02382556 -180.04956055 688.12963867 C-182.65141353 688.53174105 -185.08364603 688.61641863 -187.71142578 688.54101562 C-187.32212891 687.59871094 -186.93283203 686.65640625 -186.53173828 685.68554688 C-157.60741839 612.92446012 -146.73931161 527.61821841 -137.14892578 450.41601562 C-136.99238525 449.17400391 -136.83584473 447.93199219 -136.67456055 446.65234375 C-134.3381011 430.57176299 -134.3381011 430.57176299 -138.71142578 415.54101562 C-141.08371473 412.99927747 -142.68717452 412.54730299 -146.08642578 411.66601562 C-150.32704636 411.51978733 -152.22335037 412.16278239 -155.71142578 414.54101562 C-159.78731636 419.32747308 -159.3421202 425.12417578 -159.64892578 431.10351562 C-162.50469323 474.17098565 -179.80935121 512.49764049 -209.71142578 543.54101562 C-210.74589844 544.67023438 -210.74589844 544.67023438 -211.80126953 545.82226562 C-238.58175687 574.19621766 -280.74732903 592.97015548 -319.65112305 594.71801758 C-321.02659687 594.74411162 -322.40219237 594.7643082 -323.77783203 594.77929688 C-324.52578537 594.78904541 -325.27373871 594.79879395 -326.0443573 594.80883789 C-342.97101168 594.98398387 -359.18644676 594.66210158 -375.71142578 590.54101562 C-376.46681641 590.35909668 -377.22220703 590.17717773 -378.00048828 589.98974609 C-422.23161649 579.0589527 -460.6272519 549.29798034 -484.1394043 510.53295898 C-493.72470457 494.14616897 -500.2514681 476.97044335 -504.71142578 458.54101562 C-504.8907666 457.82703613 -505.07010742 457.11305664 -505.25488281 456.37744141 C-508.08346904 444.57715271 -508.01888154 432.54393416 -508.08642578 420.47851562 C-508.09446228 419.67825958 -508.10249878 418.87800354 -508.11077881 418.05349731 C-508.22797219 402.64532979 -506.37818535 387.77701519 -501.96142578 372.97851562 C-501.70466064 372.10485352 -501.44789551 371.23119141 -501.18334961 370.33105469 C-487.57317199 325.32127631 -456.94772575 288.81086057 -415.80908203 266.38476562 C-375.68597585 245.18955003 -328.03411381 240.3690468 -284.43017578 253.03710938 C-259.01226948 260.89519537 -235.57103493 273.60191162 -216.32470703 292.06835938 C-214.441735 293.85000556 -212.57837714 295.49603731 -210.57470703 297.12695312 C-207.69450322 299.55528321 -205.51296158 302.04809855 -203.20361328 304.99023438 C-200.48288169 307.81780097 -198.14429999 308.49379298 -194.27392578 308.91601562 C-190.12987014 308.47979924 -188.62012306 307.4497129 -185.71142578 304.54101562 C-184.14206984 301.40230375 -184.35941475 299.00245741 -184.71142578 295.54101562 C-188.46662699 290.95864535 -192.86836264 288.63586345 -198.02392578 285.97851562 C-212.59718414 278.15089931 -224.85354982 267.98715978 -236.71142578 256.54101562 C-237.41267578 255.90292969 -238.11392578 255.26484375 -238.83642578 254.60742188 C-267.27282955 228.00753585 -285.39916655 184.865203 -286.83740234 146.14990234 C-286.91841249 142.17579046 -286.95801889 138.20331932 -286.96142578 134.22851562 C-286.96210052 133.51925934 -286.96277527 132.81000305 -286.96347046 132.07925415 C-286.94579377 120.34374777 -286.23357581 109.02722447 -283.71142578 97.54101562 C-283.54513672 96.76580566 -283.37884766 95.9905957 -283.20751953 95.19189453 C-276.08751507 63.03980032 -260.06417989 35.5118984 -237.71142578 11.54101562 C-236.98697266 10.75082031 -236.26251953 9.960625 -235.51611328 9.14648438 C-176.83076444 -52.42339856 -73.84046522 -56.83183593 0 0 Z " fill="#000000" transform="translate(512.71142578125,109.458984375)"/>
</svg>
